<?xml version="1.0" encoding="UTF-8" standalone="no"?>
<!-- Created with Inkscape (http://www.inkscape.org/) -->

<svg
   xmlns:dc="http://purl.org/dc/elements/1.1/"
   xmlns:cc="http://creativecommons.org/ns#"
   xmlns:rdf="http://www.w3.org/1999/02/22-rdf-syntax-ns#"
   xmlns:svg="http://www.w3.org/2000/svg"
   xmlns="http://www.w3.org/2000/svg"
   xmlns:sodipodi="http://sodipodi.sourceforge.net/DTD/sodipodi-0.dtd"
   xmlns:inkscape="http://www.inkscape.org/namespaces/inkscape"
   width="352.80908mm"
   height="130.65897mm"
   viewBox="0 0 352.80908 130.65897"
   version="1.1"
   id="svg836"
   inkscape:version="0.92.3 (2405546, 2018-03-11)"
   sodipodi:docname="bone_blue.svg">
  <defs
     id="defs830" />
  <sodipodi:namedview
     id="base"
     pagecolor="#ffffff"
     bordercolor="#666666"
     borderopacity="1.0"
     inkscape:pageopacity="0.0"
     inkscape:pageshadow="2"
     inkscape:zoom="0.35"
     inkscape:cx="-460.4024"
     inkscape:cy="157.33367"
     inkscape:document-units="mm"
     inkscape:current-layer="layer1"
     showgrid="false"
     inkscape:window-width="1920"
     inkscape:window-height="1017"
     inkscape:window-x="1912"
     inkscape:window-y="-8"
     inkscape:window-maximized="1" />
  <metadata
     id="metadata833">
    <rdf:RDF>
      <cc:Work
         rdf:about="">
        <dc:format>image/svg+xml</dc:format>
        <dc:type
           rdf:resource="http://purl.org/dc/dcmitype/StillImage" />
        <dc:title></dc:title>
      </cc:Work>
    </rdf:RDF>
  </metadata>
  <g
     inkscape:label="Layer 1"
     inkscape:groupmode="layer"
     id="layer1"
     transform="translate(85.630513,-29.68309)">
    <path
       style="fill:#000000;stroke-width:0.26458335"
       d=""
       id="path1396"
       inkscape:connector-curvature="0" />
    <path
       style="fill:#000000;stroke-width:0.26458335"
       d=""
       id="path1394"
       inkscape:connector-curvature="0" />
    <path
       style="fill:#000000;stroke-width:0.26458335"
       d=""
       id="path1392"
       inkscape:connector-curvature="0" />
    <path
       style="fill:#4970b6;fill-opacity:1;stroke-width:0.26458335"
       d="m -55.864888,159.9896 c -3.30295,-0.61194 -6.646582,-2.0857 -9.789584,-4.31491 -6.746034,-4.78472 -12.338952,-11.64271 -15.52258,-19.03367 -1.352432,-3.13974 -1.625962,-4.10572 -2.624722,-9.26932 l -1.114953,-5.76432 1.773503,-6.47646 c 0.975426,-3.56205 1.990009,-6.83365 2.254627,-7.27021 1.985482,-3.27561 2.566526,-4.15265 3.667765,-5.53622 0.686186,-0.8621 1.842923,-2.31873 2.570527,-3.236974 0.727604,-0.91823 2.425067,-2.6362 3.772139,-3.81771 2.515349,-2.2062 2.992864,-2.98233 2.500173,-4.06367 -0.152426,-0.33454 -1.626053,-1.65491 -3.274725,-2.93415 -1.648673,-1.27924 -3.394082,-2.69339 -3.878688,-3.14255 -1.496981,-1.38749 -5.05894,-6.78735 -7.083546,-10.73853 -0.575671,-1.12347 -3.015561,-10.94515 -3.015561,-12.13902 0,-1.47816 2.252853,-9.84514 3.107526,-11.54119 0.366654,-0.7276 1.564048,-2.85467 2.660875,-4.72681 1.719659,-2.93523 2.270378,-3.63956 3.999895,-5.11555 4.211671,-3.59431 5.59,-4.49083 9.042443,-5.88157 11.033335,-4.44451 18.491089,-3.77566 29.044578,2.60488 1.705694,1.03125 5.13538,3.65126 9.064643,6.92467 4.395563,3.66188 7.992385,6.38201 11.808889,8.93056 3.018459,2.01564 5.901994,3.87883 6.407858,4.14043 0.5058654,0.26159 3.453538,1.40699 6.5503827,2.54534 5.1736598,1.90174 6.1940862,2.17878 12.5733302,3.41347 6.1864111,1.19738 7.7641291,1.40044 14.4833291,1.86415 7.221593,0.49837 9.70108,0.5141 58.605208,0.37182 l 51.064576,-0.14856 9.78959,-0.66803 9.78958,-0.66803 9.26042,-2.32229 9.26041,-2.32229 8.20209,-4.19002 c 7.45892,-3.81038 8.95723,-4.69676 16.53645,-9.78273 4.58391,-3.07598 10.67528,-6.92596 13.53641,-8.5555 4.70916,-2.68209 5.63255,-3.10164 9.74627,-4.42821 8.42195,-2.71588 9.66546,-3.01718 12.43607,-3.0133 6.66769,0.009 14.63175,2.09718 20.90209,5.47959 5.03737,2.71732 5.5668,3.03479 5.80588,3.48151 0.13706,0.25608 1.09577,1.52798 2.13051,2.82645 1.03473,1.29847 2.30589,3.13476 2.82479,4.08065 0.51893,0.94588 1.44725,2.61276 2.06296,3.70416 1.04939,1.8602 1.13435,2.16651 1.35755,4.8948 0.57198,6.99165 -0.004,12.20774 -2.04507,18.52083 -2.68764,8.31275 -7.09835,14.60658 -14.33499,20.45521 -1.88272,1.5216 -2.05883,1.74469 -1.98438,2.51355 0.0688,0.71058 0.3039,0.96901 1.48955,1.63749 5.37639,3.031194 8.60642,5.705934 11.46747,9.496024 4.64055,6.14744 6.92266,14.70779 5.93484,22.2619 -0.52665,4.02723 -1.21859,6.51084 -2.66877,9.57888 -4.72242,9.99097 -13.5726,15.99109 -25.47141,17.26874 -2.43745,0.26172 -2.97921,0.23517 -5.29167,-0.25936 -7.74994,-1.65735 -12.23806,-4.15399 -21.8908,-12.17738 -2.0373,-1.69341 -4.95433,-4.02725 -6.4823,-5.18632 -3.39719,-2.577 -14.12483,-9.12395 -16.95566,-10.34783 -1.1371,-0.49162 -4.84172,-1.67885 -8.23246,-2.63829 l -6.165,-1.74443 -6.21771,-0.20248 c -3.41974,-0.11136 -34.75851,-0.21374 -69.641717,-0.22752 -60.748677,-0.024 -63.778786,-0.003 -71.834377,0.5074 -7.093884,0.4491 -8.774417,0.63542 -10.736173,1.19031 -5.7996851,1.64045 -12.3600499,4.60788 -18.9731436,8.58209 -4.8173189,2.89501 -6.1581532,3.83933 -16.1265894,11.35763 -11.169486,8.42415 -16.45676,11.71593 -22.343806,13.91091 -4.277698,1.59494 -9.614947,2.11452 -13.784812,1.34196 z"
       id="path1413"
       inkscape:connector-curvature="0" />
  </g>
</svg>
