<?xml version="1.0" encoding="UTF-8" standalone="no"?>
<svg
   xmlns:dc="http://purl.org/dc/elements/1.1/"
   xmlns:cc="http://creativecommons.org/ns#"
   xmlns:rdf="http://www.w3.org/1999/02/22-rdf-syntax-ns#"
   xmlns:svg="http://www.w3.org/2000/svg"
   xmlns="http://www.w3.org/2000/svg"
   xmlns:sodipodi="http://sodipodi.sourceforge.net/DTD/sodipodi-0.dtd"
   xmlns:inkscape="http://www.inkscape.org/namespaces/inkscape"
   id="Warstwa_1"
   data-name="Warstwa 1"
   viewBox="0 0 203.94 121.45"
   version="1.1"
   sodipodi:docname="LOGO-02.svg"
   inkscape:version="0.92.3 (2405546, 2018-03-11)">
  <metadata
     id="metadata45">
    <rdf:RDF>
      <cc:Work
         rdf:about="">
        <dc:format>image/svg+xml</dc:format>
        <dc:type
           rdf:resource="http://purl.org/dc/dcmitype/StillImage" />
      </cc:Work>
    </rdf:RDF>
  </metadata>
  <sodipodi:namedview
     pagecolor="#ffffff"
     bordercolor="#666666"
     borderopacity="1"
     objecttolerance="10"
     gridtolerance="10"
     guidetolerance="10"
     inkscape:pageopacity="0"
     inkscape:pageshadow="2"
     inkscape:window-width="1920"
     inkscape:window-height="1017"
     id="namedview43"
     showgrid="false"
     inkscape:zoom="1.7456114"
     inkscape:cx="-40.386998"
     inkscape:cy="60.724997"
     inkscape:window-x="-8"
     inkscape:window-y="-8"
     inkscape:window-maximized="1"
     inkscape:current-layer="Warstwa_1" />
  <defs
     id="defs4">
    <style
       id="style2">.cls-1{fill:#010101;}</style>
  </defs>
  <title
     id="title6">LOGO</title>
  <path
     class="cls-1"
     d="M0,44.08v77.37H115.35V44.08L57.68,0ZM58.38,112.6c-23.6,0-43.33-19.19-43.33-42.78,0,0,0-13.75,0-13.77l2.53.79c2.19.72,3.32,1,4.19.61,3.7-1.86,9.59-3.4,13.68-2.76,1.27.2,2.39-.83,3.68-2a16.05,16.05,0,0,1,1.45-1.23,13.75,13.75,0,0,1,.47,1.76c.39,1.7.75,3.31,2,3.91A32.88,32.88,0,0,1,53.5,65.33,6.59,6.59,0,0,0,52.81,68a10.25,10.25,0,0,0,.09,1.85,7.24,7.24,0,0,0,2.41,4.84,4.35,4.35,0,0,0,2.74,1,5.17,5.17,0,0,0,1.44-.21,4.06,4.06,0,0,0,1.07-.46A31.54,31.54,0,0,0,83.79,85.23a26.5,26.5,0,0,0,6.21-.7,19.11,19.11,0,0,0,10.26-5.91A42.85,42.85,0,0,1,58.38,112.6ZM83.23,35a12.74,12.74,0,0,0-2.41,5.94,1.32,1.32,0,0,0,2.31,1,1.41,1.41,0,0,0,.31-.69,10.21,10.21,0,0,1,1.88-4.69,7.32,7.32,0,0,1,.92-1s.06-.06.1-.1a6,6,0,0,1,1-.72A4.92,4.92,0,0,1,89.7,34c2.23-.06,4.35.73,5.21,1.87a2.41,2.41,0,0,1,.3,2.27c-.24.79-.54.89-2.56.91h-.8a10.5,10.5,0,0,0-1.55.1l-.11,0a7.28,7.28,0,0,0-1.53.38l-.4.16a5.68,5.68,0,0,0-3.2,2.9,7,7,0,0,1-.39.65.4.4,0,0,1-.09.15A1.32,1.32,0,0,0,85,45.3a1.21,1.21,0,0,0,.72.23,1.33,1.33,0,0,0,1.11-.59,9.87,9.87,0,0,0,.6-1,3.16,3.16,0,0,1,2-1.74,4.66,4.66,0,0,1,1.36-.37h0a42.62,42.62,0,0,1,10.46,28h0a12.65,12.65,0,0,1-2.72,6.86L96.88,75.1c.07-1.47,0-3.48-.69-4.2-1.2-1.19-6.59,4.2-5.4,5.39.73.73,2.74.77,4.2.69h0l1.56,1.57A17.39,17.39,0,0,1,89.39,82,28.41,28.41,0,0,1,62,72.6a11.32,11.32,0,0,0,.14-1.79c0-.33,0-.67,0-1A5.11,5.11,0,0,1,62.63,68a2.59,2.59,0,0,1,1.51-1.6c.27-.15.59-.31.92-.53a1.32,1.32,0,1,0-1.43-2.23l-.15.09c-.2.13-.39.22-.56.31a5.19,5.19,0,0,0-2.69,2.84,7.38,7.38,0,0,0-.63,2.39c0,.2,0,.39-.05.58s0,.64,0,.94,0,.53,0,.74c-.06,1.08-.21,1.22-.65,1.34h-.05a1.93,1.93,0,0,1-1.85-.27,4.55,4.55,0,0,1-1.37-2.76,8.46,8.46,0,0,1-.11-1.76,1.64,1.64,0,0,1,0-.22,3.77,3.77,0,0,1,.5-1.53,5.68,5.68,0,0,1,.82-1.11,8.14,8.14,0,0,1,5-2.36,1.17,1.17,0,0,0,.69-.3A1.26,1.26,0,0,0,63,61.39a1.32,1.32,0,0,0-1.46-1.17,11,11,0,0,0-6.43,2.93,35.3,35.3,0,0,0-10.81-8.37,11.38,11.38,0,0,1-.64-2.16c-.4-1.79-.78-3.47-2.18-3.91s-2.72.75-4.11,2a11.66,11.66,0,0,1-1.62,1.33c-4.78-.69-11,1-15,2.93a17,17,0,0,1-2.3-.65A42.79,42.79,0,0,1,83.23,35Z"
     id="path8"
     style="fill:#ffffff;fill-opacity:1" />
  <path
     class="cls-1"
     d="M72.65,75.19a8,8,0,0,0,7.57-5.37,7.76,7.76,0,0,0,.45-2.65,1.33,1.33,0,0,0-2.65,0,5.27,5.27,0,0,1-.7,2.65,5.35,5.35,0,0,1-4.67,2.72,1.33,1.33,0,0,0,0,2.65Z"
     id="path10"
     style="fill:#ffffff;fill-opacity:1" />
  <path
     class="cls-1"
     d="M86.87,61a8,8,0,0,0,8-8,1.32,1.32,0,0,0-1.32-1.32A1.33,1.33,0,0,0,92.23,53a5.37,5.37,0,0,1-5.36,5.37,1.33,1.33,0,0,0-1.32,1.33A1.31,1.31,0,0,0,86.87,61Z"
     id="path12"
     style="fill:#ffffff;fill-opacity:1" />
  <path
     class="cls-1"
     d="M39.63,58.63a6,6,0,0,0-4,2.28,1.34,1.34,0,0,0,.23,1.86,1.34,1.34,0,0,0,1.86-.24A3.42,3.42,0,0,1,42.46,62a1.32,1.32,0,1,0,1.63-2.08A6,6,0,0,0,39.63,58.63Z"
     id="path14"
     style="fill:#ffffff;fill-opacity:1" />
  <path
     class="cls-1"
     d="M26.49,62.43a6,6,0,0,0-8.49,1,1.32,1.32,0,0,0,.23,1.86,1.26,1.26,0,0,0,.81.27,1.32,1.32,0,0,0,1-.5,3.42,3.42,0,0,1,4.78-.59,1.32,1.32,0,1,0,1.63-2.08Z"
     id="path16"
     style="fill:#ffffff;fill-opacity:1" />
  <path
     class="cls-1"
     d="M37.09,72.53A1.3,1.3,0,0,0,35.93,74a1.06,1.06,0,0,1-.23.76,1,1,0,0,1-.69.36,1,1,0,0,1-1.12-.9v0l-.3-2.47.94-1.88,1.08-2.13a7.8,7.8,0,0,0-7.57.92l1,1.21L31,72l.25,2.08h0a1.43,1.43,0,0,0,0,.36,1.06,1.06,0,0,1-.23.76,1,1,0,0,1-.69.37,1,1,0,0,1-.75-.22,1,1,0,0,1-.36-.69,1.33,1.33,0,1,0-2.64.29,3.68,3.68,0,0,0,3.64,3.27,2.68,2.68,0,0,0,.4,0,3.6,3.6,0,0,0,2.26-1.12,3.68,3.68,0,0,0,2.07.64l.39,0a3.66,3.66,0,0,0,3.25-4A1.31,1.31,0,0,0,37.09,72.53Z"
     id="path18"
     style="fill:#ffffff;fill-opacity:1" />
  <polygon
     class="cls-1"
     points="148.35 66.19 148.35 46.07 142.31 46.07 137.1 57.12 131.92 46.07 125.85 46.07 125.85 66.19 130.34 66.19 130.34 53.52 135.75 64.52 138.42 64.52 143.86 53.52 143.86 66.19 148.35 66.19"
     id="polygon20"
     style="fill:#ffffff;fill-opacity:1" />
  <path
     class="cls-1"
     d="M162.71,66.39a10.37,10.37,0,0,0,7.51-3,10.53,10.53,0,0,0,0-14.82,11,11,0,0,0-15,0,10.53,10.53,0,0,0,0,14.82A10.34,10.34,0,0,0,162.71,66.39Zm-4.23-15a5.71,5.71,0,0,1,8.49,0,7,7,0,0,1,0,9.17,5.73,5.73,0,0,1-8.49,0,6.94,6.94,0,0,1,0-9.17Z"
     id="path22"
     style="fill:#ffffff;fill-opacity:1" />
  <path
     class="cls-1"
     d="M193.12,60.6A4.71,4.71,0,0,0,192,57.42a5.27,5.27,0,0,0-3-1.68l.72-.33a7.87,7.87,0,0,0,.72-.5A4.14,4.14,0,0,0,192,51.4a5.19,5.19,0,0,0-1.35-3.51,5.06,5.06,0,0,0-2.23-1.33,11.48,11.48,0,0,0-3.53-.49h-7.82V66.18h8.8q4.14,0,5.81-1.87A5.39,5.39,0,0,0,193.12,60.6ZM181.55,49.87h2.16a6.55,6.55,0,0,1,2.82.43,1.8,1.8,0,0,1,.84,1.77,1.69,1.69,0,0,1-.91,1.74,7.13,7.13,0,0,1-2.77.41h-2.14Zm6,12a6.79,6.79,0,0,1-2.9.48h-3.08V57.75h2.65a8.69,8.69,0,0,1,3.27.45,1.8,1.8,0,0,1,1,1.84A1.88,1.88,0,0,1,187.53,61.91Z"
     id="path24"
     style="fill:#ffffff;fill-opacity:1" />
  <rect
     class="cls-1"
     x="196.89"
     y="46.07"
     width="4.49"
     height="20.11"
     id="rect26"
     style="fill:#ffffff;fill-opacity:1" />
  <path
     class="cls-1"
     d="M130.34,88.09H133q4.47,0,6.64-1.73c1.44-1.15,2.17-3,2.17-5.45s-.71-4.33-2.12-5.52-3.66-1.8-6.74-1.8h-7.11V93.7h4.49Zm0-10.65h2.56a5.73,5.73,0,0,1,3.26.74,2.8,2.8,0,0,1,1.05,2.47,3.85,3.85,0,0,1-.8,2.65,4,4,0,0,1-3,.91h-3Z"
     id="path28"
     style="fill:#ffffff;fill-opacity:1" />
  <polygon
     class="cls-1"
     points="159.83 77.59 159.83 73.59 145.33 73.59 145.33 93.7 160.15 93.7 160.15 89.73 149.82 89.73 149.82 85.56 158.82 85.56 158.82 81.73 149.82 81.73 149.82 77.59 159.83 77.59"
     id="polygon30"
     style="fill:#ffffff;fill-opacity:1" />
  <polygon
     class="cls-1"
     points="172.66 93.7 172.66 77.47 178.36 77.47 178.36 73.59 162.48 73.59 162.48 77.47 168.18 77.47 168.18 93.7 172.66 93.7"
     id="polygon32"
     style="fill:#ffffff;fill-opacity:1" />
  <path
     class="cls-1"
     d="M135.4,104.93a6.54,6.54,0,0,1,5.3,2.65l2.79-3.17a10.65,10.65,0,0,0-8.29-3.77,10.34,10.34,0,0,0-7.5,3,10,10,0,0,0-3.06,7.46,9.88,9.88,0,0,0,3,7.41,10.84,10.84,0,0,0,15.72-.92l-2.87-3a6.66,6.66,0,0,1-5.41,2.62,5.61,5.61,0,0,1-4.12-1.7,6.09,6.09,0,0,1-1.7-4.5,5.76,5.76,0,0,1,1.8-4.46A6.14,6.14,0,0,1,135.4,104.93Z"
     id="path34"
     style="fill:#ffffff;fill-opacity:1" />
  <path
     class="cls-1"
     d="M152.84,101.1l-8.69,20.12h4.78l1.87-4.35h8.43l1.87,4.35h4.77l-8.69-20.12Zm-.35,11.83,2.54-5.84,2.5,5.84Z"
     id="path36"
     style="fill:#ffffff;fill-opacity:1" />
  <path
     class="cls-1"
     d="M184.52,107.78q0-3.51-2-5.09t-6.69-1.59H168.2v20.12h4.49V114.8h3.11l4.46,6.42h5.53l-5.1-7.2Q184.52,112.61,184.52,107.78Zm-5.41,2.39a4.83,4.83,0,0,1-3.14.75h-3.28v-6h3.37a5.54,5.54,0,0,1,3,.6,2.54,2.54,0,0,1,.86,2.23A3,3,0,0,1,179.11,110.17Z"
     id="path38"
     style="fill:#ffffff;fill-opacity:1" />
  <polygon
     class="cls-1"
     points="193.61 117.25 193.61 113.07 202.62 113.07 202.62 109.25 193.61 109.25 193.61 105.1 203.63 105.1 203.63 101.1 189.12 101.1 189.12 121.22 203.94 121.22 203.94 117.25 193.61 117.25"
     id="polygon40"
     style="fill:#ffffff;fill-opacity:1" />
</svg>
