<?xml version="1.0" encoding="UTF-8" standalone="no"?>
<svg
   xmlns:dc="http://purl.org/dc/elements/1.1/"
   xmlns:cc="http://creativecommons.org/ns#"
   xmlns:rdf="http://www.w3.org/1999/02/22-rdf-syntax-ns#"
   xmlns:svg="http://www.w3.org/2000/svg"
   xmlns="http://www.w3.org/2000/svg"
   xmlns:sodipodi="http://sodipodi.sourceforge.net/DTD/sodipodi-0.dtd"
   xmlns:inkscape="http://www.inkscape.org/namespaces/inkscape"
   id="Warstwa_1"
   data-name="Warstwa 1"
   viewBox="0 0 141.58 141.37"
   version="1.1"
   sodipodi:docname="logo-round.svg"
   inkscape:version="0.92.3 (2405546, 2018-03-11)">
  <metadata
     id="metadata51">
    <rdf:RDF>
      <cc:Work
         rdf:about="">
        <dc:format>image/svg+xml</dc:format>
        <dc:type
           rdf:resource="http://purl.org/dc/dcmitype/StillImage" />
        <dc:title>LOGO</dc:title>
      </cc:Work>
    </rdf:RDF>
  </metadata>
  <sodipodi:namedview
     pagecolor="#ffffff"
     bordercolor="#666666"
     borderopacity="1"
     objecttolerance="10"
     gridtolerance="10"
     guidetolerance="10"
     inkscape:pageopacity="0"
     inkscape:pageshadow="2"
     inkscape:window-width="1920"
     inkscape:window-height="1017"
     id="namedview49"
     showgrid="false"
     inkscape:zoom="1.6693783"
     inkscape:cx="70.790001"
     inkscape:cy="70.684998"
     inkscape:window-x="-8"
     inkscape:window-y="-8"
     inkscape:window-maximized="1"
     inkscape:current-layer="Warstwa_1" />
  <defs
     id="defs4">
    <style
       id="style2">.cls-1{fill:#4e6cb2;}.cls-2{fill:#1d1d1b;}</style>
  </defs>
  <title
     id="title6">LOGO</title>
  <path
     class="cls-1"
     d="M71.39,22.19,32.94,51.57v51.58h76.9V51.57Zm.47,75.07C56.13,97.26,43,84.46,43,68.73V59.55c.13,0,1.63.5,1.69.53,1.47.48,2.22.69,2.8.41,2.46-1.24,6.39-2.27,9.12-1.84.84.13,1.59-.55,2.45-1.35.28-.25.69-.62,1-.82a10.54,10.54,0,0,1,.31,1.17c.26,1.14.5,2.21,1.31,2.61a22,22,0,0,1,7,5.48,4.19,4.19,0,0,0-.46,1.77,7,7,0,0,0,0,1.22A4.89,4.89,0,0,0,69.81,72a2.91,2.91,0,0,0,1.83.64,3.6,3.6,0,0,0,1-.14,2.92,2.92,0,0,0,.71-.31A21.06,21.06,0,0,0,88.8,79a17.86,17.86,0,0,0,4.14-.47,12.66,12.66,0,0,0,6.84-3.94A28.58,28.58,0,0,1,71.86,97.26Zm28.53-28.53a8.42,8.42,0,0,1-1.81,4.58l-1.06-1.06c0-1,0-2.31-.46-2.8-.79-.79-4.39,2.8-3.59,3.6.48.48,1.82.51,2.8.46h0l1,1a11.49,11.49,0,0,1-4.79,2.28,18.94,18.94,0,0,1-18.24-6.24,5.58,5.58,0,0,0,.09-1.2c0-.21,0-.44,0-.66a3.4,3.4,0,0,1,.28-1.22,1.77,1.77,0,0,1,1-1.08c.18-.1.39-.2.62-.35a.88.88,0,0,0-1-1.48l-.1.05a2.42,2.42,0,0,1-.37.21,3.45,3.45,0,0,0-1.79,1.89,5,5,0,0,0-.43,1.6l0,.38c0,.22,0,.43,0,.63s0,.35,0,.49c0,.72-.14.82-.43.9h0a1.3,1.3,0,0,1-1.23-.19A3,3,0,0,1,70,68.73a5.52,5.52,0,0,1-.08-1.17.77.77,0,0,1,0-.15,2.59,2.59,0,0,1,.33-1,3.41,3.41,0,0,1,.55-.73,5.4,5.4,0,0,1,3.35-1.58.8.8,0,0,0,.46-.2.87.87,0,0,0,.32-.77.89.89,0,0,0-1-.77,7.26,7.26,0,0,0-4.28,2,23.48,23.48,0,0,0-7.21-5.58A7.17,7.17,0,0,1,62,57.27c-.27-1.2-.52-2.32-1.45-2.61s-1.82.5-2.75,1.35a6.73,6.73,0,0,1-1.07.88c-3.19-.46-7.36.68-10,2a11.23,11.23,0,0,1-1.54-.43A28.51,28.51,0,0,1,88.42,45.51a8.51,8.51,0,0,0-1.6,4,.88.88,0,0,0,1.54.7.93.93,0,0,0,.21-.46,6.79,6.79,0,0,1,1.25-3.13,4.87,4.87,0,0,1,.61-.66l.07-.06a3.63,3.63,0,0,1,.65-.48,3.1,3.1,0,0,1,1.59-.49,4.37,4.37,0,0,1,3.47,1.24,1.59,1.59,0,0,1,.2,1.51c-.16.53-.36.6-1.71.61h-.53a7.37,7.37,0,0,0-1,.06l-.07,0a4.22,4.22,0,0,0-1,.25,2.18,2.18,0,0,0-.27.11,3.8,3.8,0,0,0-2.13,1.93c-.08.13-.15.28-.26.43a.6.6,0,0,1-.06.11.88.88,0,0,0,.73,1.37.89.89,0,0,0,.73-.39,6.58,6.58,0,0,0,.4-.68,2.14,2.14,0,0,1,1.31-1.16,3.15,3.15,0,0,1,.91-.25h0a28.41,28.41,0,0,1,7,18.67Z"
     id="path8"
     style="fill:#4e6cb2;fill-opacity:1" />
  <path
     class="cls-1"
     d="M85.84,66.09A.89.89,0,0,0,85,67a3.47,3.47,0,0,1-.46,1.76,3.57,3.57,0,0,1-3.11,1.82.88.88,0,0,0-.88.89.87.87,0,0,0,.88.87,5.34,5.34,0,0,0,5-3.58,5.12,5.12,0,0,0,.3-1.76A.87.87,0,0,0,85.84,66.09Z"
     id="path10"
     style="fill:#4e6cb2;fill-opacity:1" />
  <path
     class="cls-1"
     d="M90.85,61.07A.89.89,0,0,0,90,62a.87.87,0,0,0,.88.88,5.34,5.34,0,0,0,5.34-5.34.87.87,0,0,0-.87-.88.88.88,0,0,0-.89.88A3.58,3.58,0,0,1,90.85,61.07Z"
     id="path12"
     style="fill:#4e6cb2;fill-opacity:1" />
  <path
     class="cls-1"
     d="M59.36,61.28a4,4,0,0,0-2.7,1.52A.89.89,0,0,0,56.82,64a.86.86,0,0,0,.55.19.88.88,0,0,0,.69-.34,2.28,2.28,0,0,1,3.19-.39.87.87,0,0,0,1.23-.15.88.88,0,0,0-.15-1.24A3.94,3.94,0,0,0,59.36,61.28Z"
     id="path14"
     style="fill:#4e6cb2;fill-opacity:1" />
  <path
     class="cls-1"
     d="M50.6,63.81a4,4,0,0,0-5.66.69.89.89,0,0,0,.15,1.24.84.84,0,0,0,.54.18.9.9,0,0,0,.7-.33,2.26,2.26,0,0,1,3.18-.39.89.89,0,0,0,1.24-.15A.88.88,0,0,0,50.6,63.81Z"
     id="path16"
     style="fill:#4e6cb2;fill-opacity:1" />
  <path
     class="cls-1"
     d="M57.67,70.54a.88.88,0,0,0-.78,1,.68.68,0,0,1-1.35.14h0L55.34,70,56,68.73l.72-1.42A5.32,5.32,0,0,0,54,67a5.4,5.4,0,0,0-2.36,1l.69.8,1.27,1.48.16,1.38h0a1,1,0,0,0,0,.25.77.77,0,0,1-.15.5.75.75,0,0,1-.46.25.79.79,0,0,1-.51-.15.74.74,0,0,1-.24-.46.88.88,0,1,0-1.75.19,2.43,2.43,0,0,0,2.42,2.18h.27a2.38,2.38,0,0,0,1.5-.75,2.45,2.45,0,0,0,1.38.43l.26,0a2.41,2.41,0,0,0,1.64-.89,2.44,2.44,0,0,0,.53-1.8A.87.87,0,0,0,57.67,70.54Z"
     id="path18"
     style="fill:#4e6cb2;fill-opacity:1" />
  <polygon
     class="cls-2"
     points="18.81 21.37 22.48 29.19 14.13 27.03 11.39 30.34 22.35 39.41 24.37 36.96 17.47 31.25 25.9 33.26 27.11 31.8 23.57 23.88 30.47 29.59 32.5 27.14 21.54 18.07 18.81 21.37"
     id="polygon20"
     style="fill:#4e6cb2;fill-opacity:1" />
  <path
     class="cls-2"
     d="M51.49,13.86a7.3,7.3,0,0,0,5.67.71,7.32,7.32,0,0,0,4.62-3.37,7,7,0,0,0,.77-5.61,7,7,0,0,0-3.4-4.54A7.33,7.33,0,0,0,53.48.34a7.32,7.32,0,0,0-4.61,3.37,7.06,7.06,0,0,0-.78,5.62A7.06,7.06,0,0,0,51.49,13.86Zm.13-8.79a4,4,0,0,1,5.81-1.5,4.62,4.62,0,0,1,2,2.84,4.59,4.59,0,0,1-.37,3.44,3.91,3.91,0,0,1-2.57,2,4,4,0,0,1-3.24-.54,4.64,4.64,0,0,1-2-2.83A4.62,4.62,0,0,1,51.62,5.07Z"
     id="path22"
     style="fill:#4e6cb2;fill-opacity:1" />
  <path
     class="cls-2"
     d="M93.43,15.38a3.88,3.88,0,0,0,1.75-2.21,3.34,3.34,0,0,0-.09-2.38A3.7,3.7,0,0,0,93.43,9L94,9a4,4,0,0,0,.6-.19,2.93,2.93,0,0,0,1.76-2.06,3.7,3.7,0,0,0-.18-2.65A3.59,3.59,0,0,0,94.93,2.7a8.06,8.06,0,0,0-2.28-1.07L87.36,0l-4.2,13.59,6,1.84Q91.92,16.3,93.43,15.38ZM89.6,3.5,91.06,4a4.7,4.7,0,0,1,1.81.88,1.28,1.28,0,0,1,.2,1.37c-.19.61-.51.94-1,1a5,5,0,0,1-2-.31l-1.44-.44ZM87,12l1-3.13,1.79.55a6.26,6.26,0,0,1,2.12,1,1.27,1.27,0,0,1,.3,1.45,1.33,1.33,0,0,1-1,1.07,4.8,4.8,0,0,1-2.05-.29Z"
     id="path24"
     style="fill:#4e6cb2;fill-opacity:1" />
  <rect
     class="cls-2"
     x="105.86"
     y="19.19"
     width="14.23"
     height="3.17"
     transform="translate(24.03 93.46) rotate(-49.68)"
     id="rect26"
     style="fill:#4e6cb2;fill-opacity:1" />
  <path
     class="cls-2"
     d="M141.32,55.69l-1-4.93-14,2.79.63,3.11,3.89-.78.37,1.86a7.47,7.47,0,0,0,2.11,4.36,4.64,4.64,0,0,0,4.09.75A4.86,4.86,0,0,0,141,60.62,7.33,7.33,0,0,0,141.32,55.69Zm-2.74,2.86A2,2,0,0,1,137,59.62a2.73,2.73,0,0,1-1.95-.19,2.85,2.85,0,0,1-1.05-2l-.42-2.1,4.69-.93.35,1.77A4.07,4.07,0,0,1,138.58,58.55Z"
     id="path28"
     style="fill:#4e6cb2;fill-opacity:1" />
  <polygon
     class="cls-2"
     points="124.22 92.04 126.9 92.89 129.09 85.92 131.91 86.81 129.99 92.88 132.57 93.69 134.49 87.62 137.28 88.5 135.16 95.25 137.85 96.1 140.94 86.32 127.37 82.05 124.22 92.04"
     id="polygon30"
     style="fill:#4e6cb2;fill-opacity:1" />
  <polygon
     class="cls-2"
     points="121.32 116.76 113.15 108.69 110.92 110.96 119.09 119.02 116.26 121.89 118.22 123.81 126.11 115.82 124.15 113.89 121.32 116.76"
     id="polygon32"
     style="fill:#4e6cb2;fill-opacity:1" />
  <path
     class="cls-2"
     d="M71.91,126.66a7.4,7.4,0,0,0-5.63,2.88l2.09,2a4.67,4.67,0,0,1,3.77-2,4,4,0,0,1,3,1.12,4.29,4.29,0,0,1,1.28,3.15,4.09,4.09,0,0,1-1.18,3.19,4.38,4.38,0,0,1-3,1.25,4.63,4.63,0,0,1-3.8-1.77l-1.91,2.29a7.51,7.51,0,0,0,5.93,2.51,7.29,7.29,0,0,0,5.24-2.26,7.51,7.51,0,0,0-.24-10.52A7.46,7.46,0,0,0,71.91,126.66Z"
     id="path34"
     style="fill:#4e6cb2;fill-opacity:1" />
  <path
     class="cls-2"
     d="M44.64,123.69l-5.2-2.91.34-3.33-3-1.64-1.57,15.42L38,132.72l12.3-9.43-3-1.64Zm-6,4.58.47-4.47,3.11,1.74Z"
     id="path36"
     style="fill:#4e6cb2;fill-opacity:1" />
  <path
     class="cls-2"
     d="M19.21,102.62l-1.09-1.91,2.36-5-1.95-3.39L15.92,98c-1.48-1.24-3.2-1.29-5.18-.15a4.3,4.3,0,0,0-2.42,3c-.18,1.19.29,2.74,1.39,4.66l2.69,4.68,12.33-7.09-1.58-2.76Zm-6,3.47L12,104A3.9,3.9,0,0,1,11.3,102a1.79,1.79,0,0,1,1.06-1.32,2.14,2.14,0,0,1,1.75-.32A3.35,3.35,0,0,1,15.67,102l1.16,2Z"
     id="path38"
     style="fill:#4e6cb2;fill-opacity:1" />
  <polygon
     class="cls-2"
     points="14.22 64.83 11.41 64.86 11.51 72.17 8.55 72.2 8.47 65.83 5.77 65.87 5.85 72.24 2.92 72.27 2.83 65.19 0 65.23 0.13 75.48 14.35 75.31 14.22 64.83"
     id="polygon40"
     style="fill:#4e6cb2;fill-opacity:1" />
  <path
     class="cls-2"
     d="M124.14,39.24a3,3,0,1,0-1.49-4A3,3,0,0,0,124.14,39.24Z"
     id="path42"
     style="fill:#4e6cb2;fill-opacity:1" />
  <path
     class="cls-2"
     d="M97.39,125.18a3,3,0,1,0,1.49,4A3,3,0,0,0,97.39,125.18Z"
     id="path44"
     style="fill:#4e6cb2;fill-opacity:1" />
  <path
     class="cls-2"
     d="M10.25,54.08a3,3,0,1,0-1.49-4A3,3,0,0,0,10.25,54.08Z"
     id="path46"
     style="fill:#4e6cb2;fill-opacity:1" />
</svg>
